<mxfile host="app.diagrams.net" modified="2022-10-30T16:18:36.722Z" agent="5.0 (Windows NT 10.0; Win64; x64) AppleWebKit/537.36 (KHTML, like Gecko) Chrome/107.0.0.0 Safari/537.36 Edg/107.0.1418.26" etag="hjLfyzw8j8n2BhPBhbPG" version="20.5.1" type="github">
  <diagram id="2f404044-711c-603c-8f00-f6bb4c023d3c" name="Page-1">
    <mxGraphModel dx="1619" dy="631" grid="1" gridSize="10" guides="1" tooltips="1" connect="1" arrows="1" fold="1" page="1" pageScale="1" pageWidth="1169" pageHeight="827" background="none" math="0" shadow="0">
      <root>
        <mxCell id="0" />
        <mxCell id="1" parent="0" />
        <mxCell id="21" value="" style="swimlane;shadow=0;strokeColor=#6c8ebf;fillColor=#dae8fc;align=left;startSize=0;collapsible=0;strokeWidth=3;labelBorderColor=default;rounded=1;" parent="1" vertex="1">
          <mxGeometry x="67" y="49" width="1035" height="730" as="geometry" />
        </mxCell>
        <mxCell id="uKJPWOqe56dpy3O789kY-207" value="&lt;font style=&quot;font-size: 18px;&quot; face=&quot;Helvetica&quot;&gt;&amp;nbsp;Docker environment&lt;/font&gt;" style="whiteSpace=wrap;html=1;aspect=fixed;labelBorderColor=none;fillStyle=auto;fontFamily=Verdana;fontSize=16;fontColor=#000099;fillColor=none;gradientColor=none;glass=1;strokeWidth=3;labelPosition=center;verticalLabelPosition=bottom;align=center;verticalAlign=top;rounded=1;" parent="21" vertex="1">
          <mxGeometry x="284" y="131.5" width="467" height="467" as="geometry" />
        </mxCell>
        <mxCell id="uKJPWOqe56dpy3O789kY-211" style="edgeStyle=orthogonalEdgeStyle;orthogonalLoop=1;jettySize=auto;html=1;exitX=0.5;exitY=1;exitDx=0;exitDy=0;strokeColor=#EDC11C;strokeWidth=2;fontFamily=Verdana;fontSize=16;fontColor=#2D31BA;fillColor=#FFEB33;rounded=1;" parent="21" source="11" target="uKJPWOqe56dpy3O789kY-210" edge="1">
          <mxGeometry relative="1" as="geometry" />
        </mxCell>
        <mxCell id="22" value="PUBLIC NETWORK" style="text;html=1;align=left;verticalAlign=middle;fontColor=#4277BB;shadow=0;dashed=0;strokeColor=none;fillColor=none;labelBackgroundColor=none;fontStyle=1;fontSize=14;spacingLeft=5;rounded=1;" parent="21" vertex="1">
          <mxGeometry x="90" y="30" width="150" height="20" as="geometry" />
        </mxCell>
        <mxCell id="50" value="Application component" style="html=1;shadow=0;labelBackgroundColor=none;strokeColor=none;strokeWidth=2;fillColor=#EBC01A;gradientColor=none;fontSize=12;fontColor=#4277BB;align=left;labelPosition=right;verticalLabelPosition=middle;verticalAlign=middle;spacingLeft=5;rounded=1;" parent="21" vertex="1">
          <mxGeometry x="20" y="580" width="20" height="10" as="geometry" />
        </mxCell>
        <mxCell id="52" value="Management" style="html=1;shadow=0;labelBackgroundColor=none;strokeColor=none;strokeWidth=2;fillColor=#0DB39D;gradientColor=none;fontSize=12;fontColor=#4277BB;align=left;labelPosition=right;verticalLabelPosition=middle;verticalAlign=middle;spacingLeft=5;rounded=1;" parent="21" vertex="1">
          <mxGeometry x="20" y="600" width="20" height="10" as="geometry" />
        </mxCell>
        <mxCell id="53" value="Data store" style="html=1;shadow=0;labelBackgroundColor=none;strokeColor=none;strokeWidth=2;fillColor=#335D81;gradientColor=none;fontSize=12;fontColor=#4277BB;align=left;labelPosition=right;verticalLabelPosition=middle;verticalAlign=middle;spacingLeft=5;rounded=1;" parent="21" vertex="1">
          <mxGeometry x="20" y="620" width="20" height="10" as="geometry" />
        </mxCell>
        <mxCell id="54" value="Analytics" style="html=1;shadow=0;labelBackgroundColor=none;strokeColor=none;strokeWidth=2;fillColor=#744399;gradientColor=none;fontSize=12;fontColor=#4277BB;align=left;labelPosition=right;verticalLabelPosition=middle;verticalAlign=middle;spacingLeft=5;rounded=1;" parent="21" vertex="1">
          <mxGeometry x="20" y="640" width="20" height="10" as="geometry" />
        </mxCell>
        <mxCell id="56" value="Security" style="html=1;shadow=0;labelBackgroundColor=none;strokeColor=none;strokeWidth=2;fillColor=#E52134;gradientColor=none;fontSize=12;fontColor=#4277BB;align=left;labelPosition=right;verticalLabelPosition=middle;verticalAlign=middle;spacingLeft=5;rounded=1;" parent="21" vertex="1">
          <mxGeometry x="20" y="660" width="20" height="10" as="geometry" />
        </mxCell>
        <mxCell id="59" value="LEGEND" style="text;html=1;align=left;verticalAlign=middle;fontColor=#4277BB;shadow=0;dashed=0;strokeColor=none;fillColor=none;labelBackgroundColor=none;fontStyle=1;fontSize=14;spacingLeft=0;rounded=1;" parent="21" vertex="1">
          <mxGeometry x="20" y="550" width="150" height="20" as="geometry" />
        </mxCell>
        <mxCell id="uKJPWOqe56dpy3O789kY-122" style="edgeStyle=orthogonalEdgeStyle;orthogonalLoop=1;jettySize=auto;html=1;strokeColor=#EDC11C;fontFamily=Helvetica;fontSize=18;fillColor=#FFEB33;strokeWidth=2;rounded=1;" parent="21" source="6" target="15" edge="1">
          <mxGeometry relative="1" as="geometry">
            <Array as="points">
              <mxPoint x="360" y="152" />
              <mxPoint x="840" y="152" />
            </Array>
          </mxGeometry>
        </mxCell>
        <mxCell id="uKJPWOqe56dpy3O789kY-127" value="" style="edgeStyle=orthogonalEdgeStyle;html=1;labelBackgroundColor=#ffffff;jettySize=auto;orthogonalLoop=1;strokeColor=#EDC11C;fontColor=#000000;startArrow=classic;startFill=1;strokeWidth=2;endSize=4;startSize=4;endArrow=none;rounded=1;" parent="21" source="uKJPWOqe56dpy3O789kY-105" target="4" edge="1">
          <mxGeometry relative="1" as="geometry">
            <mxPoint x="402.5" y="507.5" as="sourcePoint" />
            <mxPoint x="395.5" y="507.5" as="targetPoint" />
            <Array as="points">
              <mxPoint x="840" y="508" />
            </Array>
          </mxGeometry>
        </mxCell>
        <mxCell id="23" style="edgeStyle=orthogonalEdgeStyle;html=1;labelBackgroundColor=#ffffff;jettySize=auto;orthogonalLoop=1;strokeColor=#EDC11C;fontColor=#000000;startArrow=none;startFill=1;strokeWidth=2;endSize=4;startSize=4;rounded=1;" parent="21" target="3" edge="1">
          <mxGeometry relative="1" as="geometry">
            <mxPoint x="177.5" y="217.5" as="sourcePoint" />
          </mxGeometry>
        </mxCell>
        <mxCell id="3" value="Web View" style="aspect=fixed;perimeter=ellipsePerimeter;html=1;align=center;shadow=0;dashed=0;image;image=img/lib/ibm/applications/saas_applications.svg;strokeColor=#FF0000;fillColor=#FFFF66;gradientColor=none;fontColor=#4277BB;labelBackgroundColor=#ffffff;spacingTop=3;rounded=1;" parent="21" vertex="1">
          <mxGeometry x="152.5" y="267.5" width="50" height="50" as="geometry" />
        </mxCell>
        <mxCell id="4" value="&lt;h1 style=&quot;box-sizing: inherit; padding: 0px; border: 0px; margin: 0px; font-variant-numeric: inherit; font-variant-east-asian: inherit; font-weight: var(--cds-productive-heading-04-font-weight, 400); font-stretch: inherit; line-height: 2.25rem; vertical-align: baseline; letter-spacing: var(--cds-productive-heading-04-letter-spacing, 0); overflow: hidden; text-overflow: ellipsis; color: rgb(22, 22, 22);&quot; class=&quot;pal--page-header__title-text&quot;&gt;&lt;font style=&quot;font-size: 16px; line-height: 1.15;&quot;&gt;IBM DB2&lt;/font&gt;&lt;/h1&gt;" style="aspect=fixed;perimeter=ellipsePerimeter;html=1;align=center;shadow=0;dashed=0;image;image=img/lib/ibm/data/data_sources.svg;strokeColor=#FF0000;fillColor=#FFFF66;gradientColor=none;fontColor=#4277BB;labelBackgroundColor=#ffffff;spacingTop=3;rounded=1;" parent="21" vertex="1">
          <mxGeometry x="332.5" y="467.5" width="60" height="60" as="geometry" />
        </mxCell>
        <mxCell id="uKJPWOqe56dpy3O789kY-93" style="edgeStyle=orthogonalEdgeStyle;orthogonalLoop=1;jettySize=auto;html=1;rounded=1;" parent="21" source="6" target="12" edge="1">
          <mxGeometry relative="1" as="geometry" />
        </mxCell>
        <mxCell id="uKJPWOqe56dpy3O789kY-99" value="" style="edgeStyle=orthogonalEdgeStyle;orthogonalLoop=1;jettySize=auto;html=1;rounded=1;" parent="21" source="6" target="4" edge="1">
          <mxGeometry relative="1" as="geometry" />
        </mxCell>
        <mxCell id="uKJPWOqe56dpy3O789kY-97" value="" style="endArrow=classic;html=1;exitX=0.5;exitY=0;exitDx=0;exitDy=0;entryX=0;entryY=0.5;entryDx=0;entryDy=0;rounded=1;" parent="21" source="6" target="11" edge="1">
          <mxGeometry width="50" height="50" relative="1" as="geometry">
            <mxPoint x="582.5" y="327.5" as="sourcePoint" />
            <mxPoint x="632.5" y="277.5" as="targetPoint" />
          </mxGeometry>
        </mxCell>
        <mxCell id="uKJPWOqe56dpy3O789kY-98" value="" style="endArrow=classic;html=1;exitX=1;exitY=1;exitDx=0;exitDy=0;entryX=0;entryY=0.5;entryDx=0;entryDy=0;rounded=1;" parent="21" source="6" target="16" edge="1">
          <mxGeometry width="50" height="50" relative="1" as="geometry">
            <mxPoint x="372.4999999999998" y="272.5" as="sourcePoint" />
            <mxPoint x="533.5" y="197.5" as="targetPoint" />
          </mxGeometry>
        </mxCell>
        <mxCell id="uKJPWOqe56dpy3O789kY-100" value="" style="aspect=fixed;perimeter=ellipsePerimeter;html=1;align=center;shadow=0;dashed=0;fontColor=#4277BB;labelBackgroundColor=#ffffff;fontSize=12;spacingTop=3;image;image=img/lib/ibm/security/security_services.svg;rounded=1;" parent="21" vertex="1">
          <mxGeometry x="152.5" y="177.5" width="50" height="50" as="geometry" />
        </mxCell>
        <mxCell id="uKJPWOqe56dpy3O789kY-110" value="" style="edgeStyle=orthogonalEdgeStyle;html=1;labelBackgroundColor=#ffffff;jettySize=auto;orthogonalLoop=1;strokeColor=#EDC11C;fontColor=#000000;startArrow=classic;startFill=1;strokeWidth=2;endSize=4;startSize=4;endArrow=none;exitX=1;exitY=0.5;exitDx=0;exitDy=0;entryX=0.56;entryY=0.425;entryDx=0;entryDy=0;entryPerimeter=0;rounded=1;" parent="21" source="4" edge="1">
          <mxGeometry relative="1" as="geometry">
            <mxPoint x="402.5000000000002" y="547.44" as="sourcePoint" />
            <mxPoint x="682.0999999999999" y="317.75" as="targetPoint" />
            <Array as="points">
              <mxPoint x="682.5" y="497.5" />
            </Array>
          </mxGeometry>
        </mxCell>
        <mxCell id="uKJPWOqe56dpy3O789kY-62" value="&lt;b&gt;ML Model&lt;/b&gt;" style="aspect=fixed;perimeter=ellipsePerimeter;html=1;align=center;shadow=0;dashed=0;fontColor=#4277BB;labelBackgroundColor=#ffffff;fontSize=12;spacingTop=3;image;image=img/lib/ibm/data/model.svg;rounded=1;" parent="21" vertex="1">
          <mxGeometry x="646.85" y="257.01" width="71.88" height="71.88" as="geometry" />
        </mxCell>
        <mxCell id="uKJPWOqe56dpy3O789kY-84" value="" style="group;fontSize=11;rounded=1;" parent="21" vertex="1" connectable="0">
          <mxGeometry x="523.5" y="170" width="146.5" height="307.5" as="geometry" />
        </mxCell>
        <mxCell id="11" value="STREAMING&lt;div&gt;COMPUTING&lt;/div&gt;" style="aspect=fixed;perimeter=ellipsePerimeter;html=1;align=center;shadow=0;dashed=0;image;image=img/lib/ibm/analytics/streaming_computing.svg;strokeColor=#FF0000;fillColor=#000099;gradientColor=none;fontColor=#4277BB;labelBackgroundColor=#ffffff;spacingTop=3;rounded=1;" parent="uKJPWOqe56dpy3O789kY-84" vertex="1">
          <mxGeometry width="54.64285714285714" height="54.64285714285714" as="geometry" />
        </mxCell>
        <mxCell id="12" value="DATA&lt;div&gt;INTEGRATION&lt;/div&gt;" style="aspect=fixed;perimeter=ellipsePerimeter;html=1;align=center;shadow=0;dashed=0;image;image=img/lib/ibm/data/device_registry.svg;strokeColor=#FF0000;fillColor=#FFFF66;gradientColor=none;fontColor=#4277BB;labelBackgroundColor=#ffffff;spacingTop=3;rounded=1;" parent="uKJPWOqe56dpy3O789kY-84" vertex="1">
          <mxGeometry y="95.625" width="54.64285714285714" height="54.64285714285714" as="geometry" />
        </mxCell>
        <mxCell id="16" value="ENTERPRISE&lt;div&gt;DATA&lt;/div&gt;" style="aspect=fixed;perimeter=ellipsePerimeter;html=1;align=center;shadow=0;dashed=0;image;image=img/lib/ibm/data/enterprise_data.svg;strokeColor=#FF0000;fillColor=#FFFF66;gradientColor=none;fontColor=#4277BB;labelBackgroundColor=#ffffff;spacingTop=3;rounded=1;" parent="uKJPWOqe56dpy3O789kY-84" vertex="1">
          <mxGeometry y="200.35714285714286" width="54.64285714285714" height="54.64285714285714" as="geometry" />
        </mxCell>
        <mxCell id="uKJPWOqe56dpy3O789kY-86" value="" style="edgeStyle=orthogonalEdgeStyle;orthogonalLoop=1;jettySize=auto;html=1;rounded=1;" parent="21" source="12" target="uKJPWOqe56dpy3O789kY-62" edge="1">
          <mxGeometry relative="1" as="geometry" />
        </mxCell>
        <mxCell id="uKJPWOqe56dpy3O789kY-115" value="" style="endArrow=classic;html=1;strokeColor=#050401;fontFamily=Helvetica;fontSize=18;fillColor=#FFEB33;exitX=1;exitY=0.5;exitDx=0;exitDy=0;entryX=0.25;entryY=1;entryDx=0;entryDy=0;rounded=1;" parent="21" source="16" target="uKJPWOqe56dpy3O789kY-62" edge="1">
          <mxGeometry width="50" height="50" relative="1" as="geometry">
            <mxPoint x="592.5" y="417.5" as="sourcePoint" />
            <mxPoint x="642.5" y="367.5" as="targetPoint" />
          </mxGeometry>
        </mxCell>
        <mxCell id="uKJPWOqe56dpy3O789kY-116" value="" style="endArrow=classic;html=1;strokeColor=#050401;fontFamily=Helvetica;fontSize=18;fillColor=#FFEB33;exitX=1;exitY=0.5;exitDx=0;exitDy=0;entryX=0.25;entryY=0;entryDx=0;entryDy=0;rounded=1;" parent="21" source="11" target="uKJPWOqe56dpy3O789kY-62" edge="1">
          <mxGeometry width="50" height="50" relative="1" as="geometry">
            <mxPoint x="632.5" y="227.5" as="sourcePoint" />
            <mxPoint x="682.5" y="177.5" as="targetPoint" />
          </mxGeometry>
        </mxCell>
        <mxCell id="uKJPWOqe56dpy3O789kY-118" value="" style="aspect=fixed;perimeter=ellipsePerimeter;html=1;align=center;shadow=0;dashed=0;fontColor=#4277BB;labelBackgroundColor=#ffffff;fontSize=12;spacingTop=3;image;image=img/lib/ibm/applications/api_developer_portal.svg;fontFamily=Helvetica;fillColor=#E9FF8F;rounded=1;" parent="21" vertex="1">
          <mxGeometry x="152.5" y="265.5" width="60" height="60" as="geometry" />
        </mxCell>
        <mxCell id="uKJPWOqe56dpy3O789kY-119" value="" style="edgeStyle=orthogonalEdgeStyle;html=1;labelBackgroundColor=#ffffff;jettySize=auto;orthogonalLoop=1;strokeColor=#EDC11C;fontColor=#000000;startArrow=classic;startFill=1;strokeWidth=2;endSize=4;startSize=4;endArrow=none;exitX=0;exitY=0.5;exitDx=0;exitDy=0;rounded=1;" parent="21" source="6" edge="1">
          <mxGeometry relative="1" as="geometry">
            <mxPoint x="322.5" y="307.5" as="sourcePoint" />
            <mxPoint x="212.5" y="307.5" as="targetPoint" />
            <Array as="points" />
          </mxGeometry>
        </mxCell>
        <mxCell id="uKJPWOqe56dpy3O789kY-123" value="" style="endArrow=classic;startArrow=classic;html=1;strokeColor=#000000;fontFamily=Helvetica;fontSize=18;fillColor=#FFEB33;entryX=0.5;entryY=1;entryDx=0;entryDy=0;exitX=0.5;exitY=0;exitDx=0;exitDy=0;rounded=1;" parent="21" source="4" target="6" edge="1">
          <mxGeometry width="50" height="50" relative="1" as="geometry">
            <mxPoint x="332.5" y="437.5" as="sourcePoint" />
            <mxPoint x="382.5" y="387.5" as="targetPoint" />
          </mxGeometry>
        </mxCell>
        <mxCell id="6" value="API&lt;div&gt;MANAGEMENT&lt;/div&gt;" style="aspect=fixed;perimeter=ellipsePerimeter;html=1;align=center;shadow=0;dashed=0;image;image=img/lib/ibm/management/api_management.svg;strokeColor=#FF0000;fillColor=#FFFF66;gradientColor=none;fontColor=#4277BB;labelBackgroundColor=#ffffff;spacingTop=3;rounded=1;" parent="21" vertex="1">
          <mxGeometry x="332.5" y="262.5" width="60" height="60" as="geometry" />
        </mxCell>
        <mxCell id="uKJPWOqe56dpy3O789kY-128" value="" style="group;rounded=1;" parent="21" vertex="1" connectable="0">
          <mxGeometry x="812.5" y="215" width="70" height="210" as="geometry" />
        </mxCell>
        <mxCell id="15" value="Web View" style="aspect=fixed;perimeter=ellipsePerimeter;html=1;align=center;shadow=0;dashed=0;image;image=img/lib/ibm/applications/enterprise_applications.svg;strokeColor=#FF0000;fillColor=#FFFF66;gradientColor=none;fontColor=#4277BB;labelBackgroundColor=#ffffff;spacingTop=3;rounded=1;" parent="uKJPWOqe56dpy3O789kY-128" vertex="1">
          <mxGeometry width="70" height="70" as="geometry" />
        </mxCell>
        <mxCell id="uKJPWOqe56dpy3O789kY-105" value="&lt;font color=&quot;#000000&quot; style=&quot;font-size: 15px;&quot;&gt;IBM cognos analytics&lt;/font&gt;" style="aspect=fixed;perimeter=ellipsePerimeter;html=1;align=center;shadow=0;dashed=0;fontColor=#4277BB;labelBackgroundColor=#ffffff;fontSize=12;spacingTop=3;image;image=img/lib/ibm/analytics/analytics.svg;rounded=1;" parent="uKJPWOqe56dpy3O789kY-128" vertex="1">
          <mxGeometry y="115" width="70" height="70" as="geometry" />
        </mxCell>
        <mxCell id="uKJPWOqe56dpy3O789kY-166" style="edgeStyle=orthogonalEdgeStyle;orthogonalLoop=1;jettySize=auto;html=1;exitX=0.5;exitY=1;exitDx=0;exitDy=0;strokeColor=#EDC11C;strokeWidth=2;fontFamily=Verdana;fontSize=16;fontColor=#000000;fillColor=#FFEB33;rounded=1;" parent="uKJPWOqe56dpy3O789kY-128" source="uKJPWOqe56dpy3O789kY-105" target="uKJPWOqe56dpy3O789kY-105" edge="1">
          <mxGeometry relative="1" as="geometry" />
        </mxCell>
        <mxCell id="uKJPWOqe56dpy3O789kY-208" value="" style="edgeStyle=orthogonalEdgeStyle;orthogonalLoop=1;jettySize=auto;html=1;strokeColor=#EDC11C;strokeWidth=2;fontFamily=Verdana;fontSize=16;fontColor=#2D31BA;fillColor=#FFEB33;rounded=1;" parent="21" source="2" target="uKJPWOqe56dpy3O789kY-100" edge="1">
          <mxGeometry relative="1" as="geometry" />
        </mxCell>
        <mxCell id="2" value="User&amp;nbsp;" style="aspect=fixed;perimeter=ellipsePerimeter;html=1;align=center;shadow=0;dashed=0;image;image=img/lib/ibm/users/user.svg;strokeColor=#FF0000;fillColor=#FFFF66;gradientColor=none;fontColor=#4277BB;labelBackgroundColor=#ffffff;fontSize=12;spacingTop=3;rounded=1;" parent="21" vertex="1">
          <mxGeometry x="147.5" y="60" width="60" height="60" as="geometry" />
        </mxCell>
        <mxCell id="uKJPWOqe56dpy3O789kY-210" value="FILE STORAGE" style="aspect=fixed;perimeter=ellipsePerimeter;html=1;align=center;shadow=0;dashed=0;fontColor=#4277BB;labelBackgroundColor=#ffffff;fontSize=10;spacingTop=3;image;image=img/lib/ibm/data/data_services.svg;glass=1;labelBorderColor=none;fillStyle=auto;strokeWidth=3;fontFamily=Verdana;fillColor=#000099;gradientColor=none;rounded=1;" parent="21" vertex="1">
          <mxGeometry x="525" y="522" width="48" height="48" as="geometry" />
        </mxCell>
        <mxCell id="9FLBnOrhTNeA0lY-Z9zI-59" style="edgeStyle=orthogonalEdgeStyle;orthogonalLoop=1;jettySize=auto;html=1;exitX=0;exitY=0.75;exitDx=0;exitDy=0;entryX=0;entryY=1;entryDx=0;entryDy=0;rounded=1;" edge="1" parent="21" source="uKJPWOqe56dpy3O789kY-210" target="uKJPWOqe56dpy3O789kY-210">
          <mxGeometry relative="1" as="geometry" />
        </mxCell>
      </root>
    </mxGraphModel>
  </diagram>
</mxfile>
